<svg width="18" height="18" viewBox="0 0 18 18" fill="none" xmlns="http://www.w3.org/2000/svg">
<mask id="mask0_19_49" style="mask-type:alpha" maskUnits="userSpaceOnUse" x="0" y="0" width="18" height="18">
<rect width="18" height="18" fill="#D9D9D9"/>
</mask>
<g mask="url(#mask0_19_49)">
<path d="M5.40161 18C4.90646 18 4.48273 17.8239 4.13043 17.4717C3.77752 17.1189 3.60107 16.695 3.60107 16.2C3.60107 15.705 3.77752 15.2811 4.13043 14.9283C4.48273 14.5761 4.90646 14.4 5.40161 14.4C5.89676 14.4 6.32048 14.5761 6.67279 14.9283C7.02569 15.2811 7.20214 15.705 7.20214 16.2C7.20214 16.695 7.02569 17.1189 6.67279 17.4717C6.32048 17.8239 5.89676 18 5.40161 18ZM14.4043 18C13.9091 18 13.4854 17.8239 13.1331 17.4717C12.7802 17.1189 12.6038 16.695 12.6038 16.2C12.6038 15.705 12.7802 15.2811 13.1331 14.9283C13.4854 14.5761 13.9091 14.4 14.4043 14.4C14.8994 14.4 15.3235 14.5761 15.6764 14.9283C16.0287 15.2811 16.2048 15.705 16.2048 16.2C16.2048 16.695 16.0287 17.1189 15.6764 17.4717C15.3235 17.8239 14.8994 18 14.4043 18ZM4.63638 3.6L6.79702 8.1H13.0989L15.5746 3.6H4.63638ZM3.78113 1.8H17.0601C17.4652 1.8 17.7428 1.95 17.8928 2.25C18.0429 2.55 18.0354 2.865 17.8703 3.195L14.6744 8.955C14.5093 9.255 14.2918 9.4875 14.0217 9.6525C13.7516 9.8175 13.444 9.9 13.0989 9.9H6.3919L5.40161 11.7H16.2048V13.5H5.40161C4.72641 13.5 4.21626 13.2036 3.87115 12.6108C3.52605 12.0186 3.51105 11.43 3.82614 10.845L5.0415 8.64L1.80054 1.8H0V0H2.92587L3.78113 1.8Z" fill="white"/>
</g>
</svg>
